<svg width="88" height="24" viewBox="0 0 88 24" fill="none" xmlns="http://www.w3.org/2000/svg">
<path d="M22.5 4.00134L21.6875 16.8576L13.9195 0L22.5 4.00134ZM17.1196 20.6251L11.2501 24L5.3804 20.6251L6.57421 17.7097H15.9258L17.1196 20.6251ZM11.2501 6.39886L14.3257 13.9339H8.17429L11.2501 6.39886ZM0.804147 16.8576L0 4.00134L8.58047 0L0.804147 16.8576Z" fill="#F44336"/>
<path d="M28.7408 4.9091H32.6591L35.983 13.0142H36.1364L39.4602 4.9091H43.3786V18H40.2976V9.95881H40.1889L37.044 17.9169H35.0753L31.9304 9.91407H31.8217V18H28.7408V4.9091Z" fill="#333333"/>
<path d="M53.2718 4.9091H56.4295V13.353C56.4295 14.3288 56.1973 15.179 55.7328 15.9034C55.2683 16.6236 54.6206 17.1818 53.7896 17.5781C52.9586 17.9702 51.9934 18.1662 50.894 18.1662C49.7818 18.1662 48.8102 17.9702 47.9792 17.5781C47.1483 17.1818 46.5027 16.6236 46.0424 15.9034C45.5822 15.179 45.3521 14.3288 45.3521 13.353V4.9091H48.5162V13.0781C48.5162 13.5298 48.6142 13.9325 48.8102 14.2862C49.0105 14.6399 49.2896 14.9169 49.6476 15.1172C50.0055 15.3175 50.421 15.4176 50.894 15.4176C51.367 15.4176 51.7804 15.3175 52.1341 15.1172C52.492 14.9169 52.7711 14.6399 52.9714 14.2862C53.1717 13.9325 53.2718 13.5298 53.2718 13.0781V4.9091Z" fill="#333333"/>
<path d="M65.4886 8.83381C65.446 8.36506 65.2564 8.00071 64.9197 7.74077C64.5874 7.47657 64.1122 7.34446 63.4943 7.34446C63.0852 7.34446 62.7443 7.39773 62.4716 7.50427C62.1989 7.6108 61.9943 7.75782 61.858 7.94532C61.7216 8.12856 61.6513 8.33949 61.647 8.57813C61.6385 8.77415 61.6768 8.94674 61.7621 9.09589C61.8516 9.24503 61.9794 9.37714 62.1456 9.49219C62.316 9.60299 62.5206 9.701 62.7592 9.78623C62.9979 9.87145 63.2663 9.94603 63.5646 10.0099L64.6896 10.2656C65.3374 10.4063 65.9084 10.5938 66.4027 10.8281C66.9013 11.0625 67.3189 11.3416 67.6555 11.6655C67.9964 11.9894 68.2543 12.3622 68.429 12.7841C68.6037 13.206 68.6932 13.679 68.6974 14.2031C68.6932 15.0298 68.4844 15.7394 68.071 16.3317C67.6577 16.924 67.0632 17.3778 66.2876 17.6932C65.5163 18.0085 64.5852 18.1662 63.4943 18.1662C62.3991 18.1662 61.4446 18.0021 60.6307 17.674C59.8168 17.3459 59.1839 16.8473 58.7322 16.1783C58.2805 15.5092 58.0483 14.6634 58.0355 13.6406H61.0653C61.0909 14.0625 61.2038 14.4141 61.4041 14.6953C61.6044 14.9766 61.8793 15.1896 62.2287 15.3345C62.5824 15.4794 62.9915 15.5519 63.456 15.5519C63.8821 15.5519 64.2443 15.4943 64.5426 15.3793C64.8452 15.2642 65.0774 15.1044 65.2393 14.8999C65.4013 14.6953 65.4844 14.4609 65.4886 14.1967C65.4844 13.9496 65.4077 13.7386 65.2585 13.5639C65.1094 13.3849 64.8793 13.2315 64.5682 13.1037C64.2614 12.9716 63.8693 12.8501 63.392 12.7394L62.0241 12.4197C60.8906 12.1598 59.9979 11.7401 59.3459 11.1605C58.6939 10.5767 58.37 9.78836 58.3743 8.79546C58.37 7.9858 58.5874 7.27628 59.0263 6.66691C59.4652 6.05753 60.0724 5.58239 60.848 5.24148C61.6236 4.90057 62.5078 4.73012 63.5007 4.73012C64.5149 4.73012 65.3949 4.9027 66.1406 5.24787C66.8906 5.58878 67.4723 6.06819 67.8857 6.68608C68.299 7.30398 68.5099 8.01989 68.5185 8.83381H65.4886Z" fill="#333333"/>
<path d="M73.4595 4.9091V18H70.2955V4.9091H73.4595Z" fill="#333333"/>
<path d="M87.3287 9.65199H84.1326C84.09 9.32387 84.0027 9.0277 83.8706 8.7635C83.7385 8.49929 83.5637 8.27344 83.3464 8.08594C83.1291 7.89844 82.8713 7.75569 82.573 7.65767C82.2789 7.5554 81.9529 7.50427 81.595 7.50427C80.96 7.50427 80.4125 7.65981 79.9522 7.97089C79.4963 8.28196 79.1447 8.73154 78.8975 9.31961C78.6547 9.90767 78.5332 10.6193 78.5332 11.4546C78.5332 12.3239 78.6568 13.0526 78.9039 13.6406C79.1554 14.2244 79.5069 14.6655 79.9586 14.9638C80.4146 15.2578 80.9537 15.4048 81.5758 15.4048C81.9252 15.4048 82.2427 15.3601 82.5282 15.2706C82.818 15.1811 83.0716 15.0511 83.2889 14.8807C83.5105 14.706 83.6916 14.495 83.8322 14.2479C83.9771 13.9965 84.0772 13.7131 84.1326 13.3977L87.3287 13.4169C87.2733 13.9965 87.1049 14.5675 86.8237 15.13C86.5467 15.6925 86.1653 16.206 85.6795 16.6705C85.1937 17.1307 84.6014 17.4972 83.9025 17.7699C83.2079 18.0426 82.411 18.179 81.5119 18.179C80.3272 18.179 79.2662 17.919 78.3287 17.3992C77.3954 16.875 76.6582 16.1122 76.117 15.1108C75.5758 14.1094 75.3052 12.8906 75.3052 11.4546C75.3052 10.0142 75.5801 8.79333 76.1298 7.79191C76.6795 6.79049 77.4231 6.02983 78.3606 5.50995C79.2981 4.99006 80.3485 4.73012 81.5119 4.73012C82.3045 4.73012 83.0375 4.84091 83.7108 5.0625C84.3841 5.27983 84.9764 5.59944 85.4877 6.02131C85.9991 6.43892 86.4146 6.95242 86.7342 7.56179C87.0538 8.17117 87.252 8.8679 87.3287 9.65199Z" fill="#333333"/>
</svg>
